<?xml version="1.0" encoding="UTF-8"?>
<svg id="Camada_1" xmlns="http://www.w3.org/2000/svg" version="1.1" xmlns:x="http://ns.adobe.com/Extensibility/1.0/" viewBox="0 0 71 103">
  <!-- Generator: Adobe Illustrator 29.7.1, SVG Export Plug-In . SVG Version: 2.1.1 Build 8)  -->
  <defs>
    <style>
      .st0 {
        fill: #40221f;
      }
    </style>
  </defs>
  <path class="st0" d="M35,36.7c1.6,0,3.1-.6,4.2-1.7l22.3-22.3c2.3-2.3,2.3-6.1,0-8.4-2.3-2.3-6.1-2.3-8.4,0l-18,18L17.1,4.3c-2.3-2.3-6.1-2.3-8.4,0-1.2,1.2-1.7,2.7-1.7,4.2s.6,3.1,1.7,4.2l22.1,22.3c1.1,1.1,2.6,1.7,4.2,1.7Z"/>
  <path class="st0" d="M39.2,65.4l22.3-22.3c2.3-2.3,2.3-6.1,0-8.4s-6.1-2.3-8.4,0l-18,18-18-18c-2.3-2.3-6.1-2.3-8.4,0-1.2,1.2-1.7,2.7-1.7,4.2s.6,3.1,1.7,4.2l22.3,22.3c2.1,2.3,5.9,2.3,8.2,0Z"/>
  <path class="st0" d="M39.2,95.8l22.3-22.3c2.3-2.3,2.3-6.1,0-8.4-2.3-2.3-6.1-2.3-8.4,0l-18,18-18.1-18.1c-2.3-2.3-6.1-2.3-8.4,0-1.2,1.2-1.7,2.7-1.7,4.2s.6,3.1,1.7,4.2l22.3,22.3c2.2,2.4,6,2.4,8.3.1Z"/>
</svg>