<svg width="1308" height="290" viewBox="0 0 1308 290" fill="none" xmlns="http://www.w3.org/2000/svg">
<path fill-rule="evenodd" clip-rule="evenodd" d="M0 289.85C14.2346 284.852 41.1221 273.608 58.5199 269.86C75.9178 264.863 113.877 244.873 118.622 239.876C140.764 221.135 166.07 218.637 199.284 199.896C210.355 192.4 232.498 163.665 259.386 149.922C273.62 142.426 292.6 138.678 294.181 137.429C306.834 136.179 309.998 142.426 313.161 146.174C352.701 172.411 327.395 204.894 357.446 154.92C357.446 153.67 408.058 128.683 449.18 92.4521C458.67 84.956 536.169 72.4624 544.077 64.9663C567.802 44.9768 612.087 33.7325 643.719 22.4884C670.607 12.4936 683.26 0 688.005 0C695.913 3.74805 719.637 14.9923 733.872 28.7351C738.617 33.7325 748.106 31.2338 752.851 37.4806C760.759 46.226 760.759 56.2209 768.667 63.717C771.831 66.2157 774.994 67.465 778.157 69.9637C789.228 79.9585 800.3 92.4521 806.626 91.2028C827.187 87.4547 833.514 74.9611 843.004 69.9637C855.657 63.717 869.891 63.717 877.799 62.4676C887.289 61.2183 896.779 64.9664 915.758 79.9586C920.503 83.7066 928.411 84.956 934.738 91.2028C942.646 98.6989 953.717 127.434 964.788 138.678C991.676 164.914 1007.49 167.413 1013.82 171.161L1037.54 161.166C1045.45 158.668 1054.94 173.66 1067.59 183.655C1075.5 189.902 1121.37 206.143 1134.02 213.639C1149.84 222.385 1171.98 222.385 1192.54 232.38C1205.19 237.377 1213.1 251.12 1225.76 256.117C1254.22 268.611 1284.28 281.104 1308 289.85H0Z" fill="#B14B7A"/>
</svg>
