<svg width="1765" height="145" viewBox="0 0 1765 145" fill="none" xmlns="http://www.w3.org/2000/svg">
<path d="M0.00017365 44.1748L13.4047 44.1748C13.4047 44.1748 2.69816 62.1929 11.8629 69.7257C26.3809 81.5737 43.9395 44.1748 43.9395 44.1748C43.9395 44.1748 42.3978 82.4822 59.2284 86.1161C73.7464 89.2579 81.4123 65.2968 83.2538 58.6347L84.1531 58.6347C86.5085 67.4923 98.2856 108.184 117.343 109.812C138.756 111.629 137.214 67.8709 137.214 67.8709C137.214 67.8709 158.97 84.1099 167.878 78.2426C169.548 84.1477 172.717 89.9392 178.499 93.4217C193.787 102.544 228.948 55.1144 228.948 55.1144C228.948 55.1144 219.783 129.912 251.859 142.669C283.936 155.425 311.473 87.933 311.473 87.933C311.473 87.933 314.514 124.423 331.344 124.423C348.175 124.423 369.545 64.237 369.545 64.237C369.545 64.237 393.999 109.623 419.994 99.7054C445.989 89.7879 433.741 44.1748 433.741 44.1748C433.741 44.1748 488.216 99.9704 546.844 44.1748C546.844 44.1748 536.138 62.1929 545.303 69.7257C559.821 81.5737 577.379 44.1748 577.379 44.1748C577.379 44.1748 575.838 82.4822 592.668 86.1161C607.186 89.2579 614.852 65.2969 616.651 58.6347L617.55 58.6347C619.905 67.4924 631.683 108.185 650.74 109.812C672.153 111.629 670.611 67.8709 670.611 67.8709C670.611 67.8709 686.114 79.3783 696.264 79.4918C698.02 84.9427 701.103 90.2043 706.457 93.3839C721.746 102.507 756.906 55.0765 756.906 55.0765C756.906 55.0765 747.741 129.874 779.818 142.631C811.894 155.387 839.431 87.8952 839.431 87.8952C839.431 87.8952 842.472 124.386 859.302 124.386C876.133 124.386 897.503 64.1992 897.503 64.1992C897.503 64.1992 921.957 109.585 947.952 99.6676C973.947 89.75 961.699 44.137 961.699 44.137C961.699 44.137 990.735 69.6879 1015.19 44.137L1074.8 44.137C1074.8 44.137 1064.1 62.1551 1073.26 69.6879C1087.78 81.5359 1105.34 44.137 1105.34 44.137C1105.34 44.137 1103.8 82.4444 1120.63 86.0783C1135.14 89.2201 1142.81 65.2591 1144.61 58.5969L1145.51 58.5969C1147.86 67.4546 1159.64 108.147 1178.7 109.774C1200.11 111.591 1198.57 67.8331 1198.57 67.8331C1198.57 67.8331 1220.32 84.0721 1229.23 78.2049C1230.9 84.1099 1234.07 89.9015 1239.85 93.384C1255.14 102.507 1290.3 55.0766 1290.3 55.0766C1290.3 55.0766 1281.14 129.874 1313.21 142.631C1345.29 155.387 1372.83 87.8953 1372.83 87.8953C1372.83 87.8953 1375.87 124.386 1392.7 124.386C1409.53 124.386 1430.9 64.1992 1430.9 64.1992C1430.9 64.1992 1455.35 109.585 1481.35 99.6676C1507.34 89.7501 1495.1 44.137 1495.1 44.137C1495.1 44.137 1524.13 69.6879 1548.59 44.137L1608.2 44.137C1608.2 44.137 1597.49 62.1551 1606.66 69.6879C1621.18 81.536 1638.73 44.137 1638.73 44.137C1638.73 44.137 1637.19 82.4444 1654.02 86.0783C1670.85 89.7122 1678.48 56.8936 1678.48 56.8936C1678.48 56.8936 1690.68 107.957 1712.1 109.774C1733.51 111.591 1731.97 67.8331 1731.97 67.8331C1731.97 67.8331 1756.42 86.0783 1764.04 76.9557L1764.04 0.000274577L0.0429151 0.000138131L0.0429107 44.0991L0.00017365 44.1748Z" fill="#25C386"/>
</svg>
