<svg width="1106" height="294" viewBox="0 0 1106 294" fill="none" xmlns="http://www.w3.org/2000/svg">
<path d="M399.668 158.858C390.022 158.787 385.687 168.758 387.572 175.292C389.457 181.827 397.664 185.439 403.523 182.287C400.816 185.404 401.056 190.522 403.472 193.869C405.888 197.216 410.051 198.898 414.095 199.022C423.844 199.288 432.89 190.097 432.787 180.021C436.814 179.029 440.892 178.002 444.455 175.841C448.019 173.681 451.035 170.157 451.669 165.942C452.594 159.62 447.659 153.475 441.697 151.775C435.734 150.075 429.275 152.005 424.015 155.352C425.951 150.588 423.278 144.62 418.755 142.442C414.232 140.264 408.544 141.61 404.86 145.081C401.176 148.569 399.377 153.847 399.326 159" fill="white"/>
<path d="M10.4473 125.651L6.44767 125.877C2.31909 127.152 0.168784 133.296 1.14359 138.357C2.1184 143.402 5.42988 147.329 9.0424 150.104C12.9273 153.071 17.5003 155.061 22.0589 154.468C26.6176 153.892 31.0759 150.331 32.4807 145.007C35.7779 153.228 42.4868 159.268 49.8982 160.681C57.3096 162.095 65.2227 158.866 70.4265 152.286C73.4656 148.446 75.6159 143.384 75.7162 138.061C75.8022 132.737 73.5659 127.239 69.6667 124.813C77.4795 125.389 83.9017 114.899 82.5685 105.508C81.2497 96.1004 73.8526 89.1186 66.0972 87.827C58.3417 86.5354 50.4716 90.0437 43.9777 95.3847C39.8778 88.403 32.6671 83.4809 25.7861 85.3834C18.9051 87.2859 13.9881 97.7585 17.6149 105.124C13.0706 99.2771 3.72396 101.319 1.14359 108.737C-1.43678 116.138 3.83865 125.755 10.4473 125.668V125.651Z" fill="white"/>
<path d="M271.797 168.704C259.816 170.982 263.932 184.55 266.884 188.65C271.517 195.105 279.318 196.092 282.163 194.928C285.007 193.763 287.399 190.827 287.658 187.309C290.739 191.789 295.76 194.346 300.652 193.941C305.544 193.536 310.198 190.169 312.72 185.233C314.185 182.347 314.961 178.854 314.379 175.564C313.797 172.273 311.707 169.286 308.927 168.476C313.97 167.489 316.793 159.921 314.81 154.377C312.828 148.834 307.289 145.822 302.182 146.353C297.075 146.91 292.485 150.428 288.994 154.808C285.546 151.213 280.395 149.593 276.193 151.795C266.625 156.833 271.797 168.653 271.797 168.653V168.704Z" fill="white"/>
<path d="M165.613 41.1623C170.294 57.625 186.48 67.9708 202.16 68.0147C217.841 68.0586 232.67 59.4395 244.387 47.9962C254.042 59.3225 269.43 66.0246 282.65 60.5956C295.87 55.1665 303.331 34.9577 294.527 22.8266C304.807 31.9725 322.895 25.5631 326.393 11.5296C327.324 7.79804 327.111 3.94944 326.06 0.349609H182.583C183.953 1.34468 160.931 24.7143 165.613 41.1623Z" fill="white"/>
<path d="M1105.98 0.349609H383.983C386.331 12.0393 388.964 21.1673 391.357 24.6418C400.356 37.7155 420.341 42.0292 434.14 33.8729C438.685 62.2874 461.107 87.2275 489.323 95.2807C517.554 103.334 542.866 90.0248 562.294 68.4415C583.467 89.112 630.584 90.4664 648.627 67.1312C640.306 86.83 653.774 109.135 670.418 122.9C699.642 147.075 712.403 149.018 749.739 141.495C750.055 141.804 723.509 189.432 761.386 207.202C787.751 219.554 807.811 205.42 833.303 191.92C828.262 195.056 838.691 229.668 859.789 235.278C895.92 244.891 913.798 217.419 915.95 205.376C918.238 211.633 927.643 235.837 953.195 214.062C951.209 218.729 951.856 224.515 954.58 229.021C958.237 235.086 967.175 241.785 978.462 241.52C996.896 241.093 1016.55 232.745 1011.36 221.335C1017.75 229.227 1031.16 258.907 1053.93 240.534C1053.86 294.963 1065.65 291.842 1097.57 295.228C1105.94 296.111 1104.79 269.198 1103.7 251.281C1103.24 243.846 1104.66 238.531 1103.11 228.122C1100.2 208.571 1078.97 200.856 1070.69 204.39C1069.88 188.813 1057.29 167.672 1043.95 157.984C1019.44 140.126 989.974 156.291 990.35 154.642C1003.55 143.983 1013.18 133.559 1018.58 117.821C1025.61 97.3124 1000.67 80.0429 982.751 67.3962C1043.97 75.0519 1024.93 18.6498 1033.01 22.831C1073.61 43.8106 1105.61 11.6418 1105.94 0.364332L1105.98 0.349609Z" fill="white"/>
</svg>
