<?xml version="1.0" encoding="UTF-8"?>
<svg id="Layer_1" xmlns="http://www.w3.org/2000/svg" version="1.1" viewBox="0 0 1076 460.7">
  <!-- Generator: Adobe Illustrator 29.0.0, SVG Export Plug-In . SVG Version: 2.1.0 Build 186)  -->
  <defs>
    <style>
      .st0 {
        fill: #fbd1d1;
      }
    </style>
  </defs>
  <path class="st0" d="M428.2,223.8c-41.4.3-77.2,24.3-89.3,56.8-4.9-3.2-11-5-17.6-5-16.4.1-30,11.6-30.5,25.7,0,.1,0,.3,0,.4-2.1.2-4.1.5-6.1.8-17.3-11-38.4-17.8-61.5-18.6-55.1-2-103.4,29.1-119.4,71.9-6.2-4-13.9-6.4-22.4-6.3-20.8.2-38.1,14.8-38.7,32.6,0,.2,0,.3,0,.5-.5,0-1,0-1.5.1-56.7,5.6-54,77.7,2.8,77.2l480.1-3.9c30.7-.2,56.6-20,61.4-45.4l373.4,49.3c27.4,0,41.2-19.7,45.1-44.7,3.7-23.5-14.4-45.4-41-50.8.8-1.5,1.3-3.2,1.6-5,1.5-9.8-5.9-18.8-16.9-21.2,3.5-6.2,5.8-13,7-20.2,5.9-37.6-25.1-72.5-69.2-77.8-36.2-4.4-70.1,12.5-84.2,39.6-3.9-3.3-9-5.6-14.9-6.4-14.3-1.7-27.5,6.8-29.4,19,0,.1,0,.2,0,.3-1.8,0-3.6,0-5.4,0-13.9-11.5-31.7-19.9-51.7-23.2-48-8-93.5,13.8-112.2,49.4-4.9-4.2-11.4-7.2-18.9-8.1-18.2-2.2-34.9,8.6-37.3,24.1,0,.1,0,.3,0,.4-.1,0-.2,0-.3,0-3.8-5.6-10.6-9.5-18.7-10.2,3-7.5,4.8-15.5,5-23.8,1.4-43.2-38.4-78-88.8-77.6ZM1045.3,314.2c-.5-1.5-2.6-1.5-3,0l-2.5,9.5c-2.1,7.8-7.9,14-15.5,16.5l-9.2,3c-1.5.5-1.4,2.6.1,3.1l9.4,2.8c7.8,2.3,14,8.3,16.7,16.1l3.2,9.4c.5,1.5,2.6,1.5,3,0l2.5-9.5c2.1-7.8,7.9-14,15.5-16.5l9.2-3c1.5-.5,1.4-2.6-.1-3.1l-9.4-2.8c-7.8-2.3-14-8.3-16.7-16.1l-3.2-9.4ZM32.2,279.3c0-.8-1.1-1.1-1.5-.4l-2.7,4.2c-2.2,3.5-5.9,5.7-10,5.8h-4.9c-.8.2-1.1,1.2-.4,1.6l4.1,2.7c3.4,2.2,5.5,6.1,5.7,10.2v5c.2.8,1.2,1.1,1.6.4l2.7-4.2c2.2-3.5,5.9-5.7,10-5.8h4.9c.8-.2,1.1-1.2.4-1.6l-4.1-2.7c-3.4-2.2-5.5-6.1-5.7-10.2v-5ZM124.8,230.3c-.3-1.4-2.3-1.6-2.8-.2l-3.2,8.6c-2.6,7.1-8.6,12.3-15.8,14l-8.8,2c-1.4.3-1.5,2.3-.2,2.8l8.5,3.4c7,2.8,12.2,8.9,14,16.3l2.1,9c.3,1.4,2.3,1.6,2.8.2l3.2-8.6c2.6-7.1,8.6-12.3,15.8-14l8.8-2c1.4-.3,1.5-2.3.2-2.8l-8.5-3.4c-7-2.8-12.2-8.9-14-16.3l-2.1-9ZM525,207.9c30.6-64.3-6.3-110.6-42.6-104.7-29,4.8-44.7,38.2-16.3,59.3,12.2,9.1,30.5,5.6,36.1-8.8,23.4-.5,22.9,54.2,22.9,54.2ZM994.6,172.9c-.3-.7-1.2-.6-1.4,0l-1,4.4c-.8,3.7-3.4,6.6-6.9,7.9l-4.2,1.5c-.7.2-.6,1.2,0,1.4l4.4,1.1c3.6.9,6.6,3.6,8,7.2l1.6,4.3c.3.7,1.2.6,1.4,0l1-4.4c.8-3.7,3.4-6.6,6.9-7.9l4.2-1.5c.7-.2.6-1.2-.1-1.4l-4.4-1.1c-3.6-.9-6.6-3.6-8-7.2l-1.6-4.3ZM600.1,159.1c50.2-22-34.8-77.6-54.7,32.7,0,0,14.3-16,25.9-22.1,11.7-6,19.2-6.4,28.8-10.6Z"/>
  <rect class="st0" x="36.2" y="394.4" width="922.6" height="65.4"/>
</svg>